{
    "streams": [
        {
            "index": 0,
            "codec_name": "h264",
            "codec_long_name": "H.264 / AVC / MPEG-4 AVC / MPEG-4 part 10",
            "profile": "High",
            "codec_type": "video",
            "codec_time_base": "1001/48000",
            "codec_tag_string": "avc1",
            "codec_tag": "0x31637661",
            "width": 1280,
            "height": 720,
            "has_b_frames": 2,
            "sample_aspect_ratio": "0:1",
            "display_aspect_ratio": "0:1",
            "pix_fmt": "yuv420p",
            "level": 40,
            "r_frame_rate": "24000/1001",
            "avg_frame_rate": "24000/1001",
            "time_base": "1/24000",
            "start_pts": 0,
            "start_time": "0.000000",
            "duration_ts": 188876688,
            "duration": "7869.862000",
            "bit_rate": "1543806",
            "nb_frames": "188688",
            "disposition": {
                "default": 1,
                "dub": 0,
                "original": 0,
                "comment": 0,
                "lyrics": 0,
                "karaoke": 0,
                "forced": 0,
                "hearing_impaired": 0,
                "visual_impaired": 0,
                "clean_effects": 0,
                "attached_pic": 0
            },
            "tags": {
                "creation_time": "2013-07-21 10:55:18",
                "language": "und",
                "handler_name": "Video"
            }
        },
        {
            "index": 1,
            "codec_name": "aac",
            "codec_long_name": "AAC (Advanced Audio Coding)",
            "codec_type": "audio",
            "codec_time_base": "1/48000",
            "codec_tag_string": "mp4a",
            "codec_tag": "0x6134706d",
            "sample_fmt": "fltp",
            "sample_rate": "48000",
            "channels": 2,
            "channel_layout": "stereo",
            "bits_per_sample": 0,
            "r_frame_rate": "0/0",
            "avg_frame_rate": "0/0",
            "time_base": "1/48000",
            "start_pts": 0,
            "start_time": "0.000000",
            "duration_ts": 377756672,
            "duration": "7869.930667",
            "bit_rate": "160731",
            "nb_frames": "368903",
            "disposition": {
                "default": 1,
                "dub": 0,
                "original": 0,
                "comment": 0,
                "lyrics": 0,
                "karaoke": 0,
                "forced": 0,
                "hearing_impaired": 0,
                "visual_impaired": 0,
                "clean_effects": 0,
                "attached_pic": 0
            },
            "tags": {
                "creation_time": "2013-07-21 22:58:24",
                "language": "und",
                "handler_name": "Audio Main"
            }
        },
        {
            "index": 2,
            "codec_name": "aac",
            "codec_long_name": "AAC (Advanced Audio Coding)",
            "codec_type": "audio",
            "codec_time_base": "1/48000",
            "codec_tag_string": "mp4a",
            "codec_tag": "0x6134706d",
            "sample_fmt": "fltp",
            "sample_rate": "48000",
            "channels": 6,
            "channel_layout": "5.1",
            "bits_per_sample": 0,
            "r_frame_rate": "0/0",
            "avg_frame_rate": "0/0",
            "time_base": "1/48000",
            "start_pts": 0,
            "start_time": "0.000000",
            "duration_ts": 377756672,
            "duration": "7869.930667",
            "bit_rate": "446276",
            "nb_frames": "368903",
            "disposition": {
                "default": 1,
                "dub": 0,
                "original": 0,
                "comment": 0,
                "lyrics": 0,
                "karaoke": 0,
                "forced": 0,
                "hearing_impaired": 0,
                "visual_impaired": 0,
                "clean_effects": 0,
                "attached_pic": 0
            },
            "tags": {
                "creation_time": "2013-07-21 23:09:35",
                "language": "und",
                "handler_name": "Audio Main"
            }
        },
        {
            "index": 3,
            "codec_name": "aac",
            "codec_long_name": "AAC (Advanced Audio Coding)",
            "codec_type": "audio",
            "codec_time_base": "1/48000",
            "codec_tag_string": "mp4a",
            "codec_tag": "0x6134706d",
            "sample_fmt": "fltp",
            "sample_rate": "48000",
            "channels": 2,
            "channel_layout": "stereo",
            "bits_per_sample": 0,
            "r_frame_rate": "0/0",
            "avg_frame_rate": "0/0",
            "time_base": "1/48000",
            "start_pts": 0,
            "start_time": "0.000000",
            "duration_ts": 377756672,
            "duration": "7869.930667",
            "bit_rate": "162259",
            "nb_frames": "368903",
            "disposition": {
                "default": 1,
                "dub": 0,
                "original": 0,
                "comment": 0,
                "lyrics": 0,
                "karaoke": 0,
                "forced": 0,
                "hearing_impaired": 0,
                "visual_impaired": 0,
                "clean_effects": 0,
                "attached_pic": 0
            },
            "tags": {
                "creation_time": "2013-07-21 23:19:36",
                "language": "und",
                "handler_name": "Audio Commentary"
            }
        },
        {
            "index": 4,
            "codec_name": "dvdsub",
            "codec_long_name": "DVD subtitles",
            "codec_type": "subtitle",
            "codec_time_base": "1/90000",
            "codec_tag_string": "mp4s",
            "codec_tag": "0x7334706d",
            "width": 1920,
            "height": 1080,
            "r_frame_rate": "0/0",
            "avg_frame_rate": "0/0",
            "time_base": "1/90000",
            "start_pts": 0,
            "start_time": "0.000000",
            "duration_ts": 708293700,
            "duration": "7869.930000",
            "bit_rate": "10977",
            "nb_frames": "1802",
            "disposition": {
                "default": 1,
                "dub": 0,
                "original": 0,
                "comment": 0,
                "lyrics": 0,
                "karaoke": 0,
                "forced": 0,
                "hearing_impaired": 0,
                "visual_impaired": 0,
                "clean_effects": 0,
                "attached_pic": 0
            },
            "tags": {
                "creation_time": "2013-07-22 05:59:28",
                "language": "jpn",
                "handler_name": "Japanese"
            }
        },
        {
            "index": 5,
            "codec_name": "dvdsub",
            "codec_long_name": "DVD subtitles",
            "codec_type": "subtitle",
            "codec_time_base": "1/90000",
            "codec_tag_string": "mp4s",
            "codec_tag": "0x7334706d",
            "width": 1920,
            "height": 1080,
            "r_frame_rate": "0/0",
            "avg_frame_rate": "0/0",
            "time_base": "1/90000",
            "start_pts": 0,
            "start_time": "0.000000",
            "duration_ts": 708293700,
            "duration": "7869.930000",
            "bit_rate": "11888",
            "nb_frames": "1813",
            "disposition": {
                "default": 1,
                "dub": 0,
                "original": 0,
                "comment": 0,
                "lyrics": 0,
                "karaoke": 0,
                "forced": 0,
                "hearing_impaired": 0,
                "visual_impaired": 0,
                "clean_effects": 0,
                "attached_pic": 0
            },
            "tags": {
                "creation_time": "2013-07-22 05:59:29",
                "language": "eng",
                "handler_name": "English"
            }
        },
        {
            "index": 6,
            "codec_name": "dvdsub",
            "codec_long_name": "DVD subtitles",
            "codec_type": "subtitle",
            "codec_time_base": "1/90000",
            "codec_tag_string": "mp4s",
            "codec_tag": "0x7334706d",
            "width": 1920,
            "height": 1080,
            "r_frame_rate": "0/0",
            "avg_frame_rate": "0/0",
            "time_base": "1/90000",
            "start_pts": 0,
            "start_time": "0.000000",
            "duration_ts": 708293700,
            "duration": "7869.930000",
            "bit_rate": "7509",
            "nb_frames": "1796",
            "disposition": {
                "default": 1,
                "dub": 0,
                "original": 0,
                "comment": 0,
                "lyrics": 0,
                "karaoke": 0,
                "forced": 0,
                "hearing_impaired": 0,
                "visual_impaired": 0,
                "clean_effects": 0,
                "attached_pic": 0
            },
            "tags": {
                "creation_time": "2013-07-22 05:59:34",
                "language": "zho",
                "handler_name": "Chinese"
            }
        },
        {
            "index": 7,
            "codec_name": "dvdsub",
            "codec_long_name": "DVD subtitles",
            "codec_type": "subtitle",
            "codec_time_base": "1/90000",
            "codec_tag_string": "mp4s",
            "codec_tag": "0x7334706d",
            "width": 1920,
            "height": 1080,
            "r_frame_rate": "0/0",
            "avg_frame_rate": "0/0",
            "time_base": "1/90000",
            "start_pts": 0,
            "start_time": "0.000000",
            "duration_ts": 708293700,
            "duration": "7869.930000",
            "bit_rate": "7269",
            "nb_frames": "1566",
            "disposition": {
                "default": 1,
                "dub": 0,
                "original": 0,
                "comment": 0,
                "lyrics": 0,
                "karaoke": 0,
                "forced": 0,
                "hearing_impaired": 0,
                "visual_impaired": 0,
                "clean_effects": 0,
                "attached_pic": 0
            },
            "tags": {
                "creation_time": "2013-07-22 05:59:34",
                "language": "kor",
                "handler_name": "Korean"
            }
        },
        {
            "index": 8,
            "codec_name": "dvdsub",
            "codec_long_name": "DVD subtitles",
            "codec_type": "subtitle",
            "codec_time_base": "1/90000",
            "codec_tag_string": "mp4s",
            "codec_tag": "0x7334706d",
            "width": 1920,
            "height": 1080,
            "r_frame_rate": "0/0",
            "avg_frame_rate": "0/0",
            "time_base": "1/90000",
            "start_pts": 0,
            "start_time": "0.000000",
            "duration_ts": 708293700,
            "duration": "7869.930000",
            "bit_rate": "10277",
            "nb_frames": "1490",
            "disposition": {
                "default": 1,
                "dub": 0,
                "original": 0,
                "comment": 0,
                "lyrics": 0,
                "karaoke": 0,
                "forced": 0,
                "hearing_impaired": 0,
                "visual_impaired": 0,
                "clean_effects": 0,
                "attached_pic": 0
            },
            "tags": {
                "creation_time": "2013-07-22 05:59:34",
                "language": "fra",
                "handler_name": "French"
            }
        },
        {
            "index": 9,
            "codec_name": "dvdsub",
            "codec_long_name": "DVD subtitles",
            "codec_type": "subtitle",
            "codec_time_base": "1/90000",
            "codec_tag_string": "mp4s",
            "codec_tag": "0x7334706d",
            "width": 1920,
            "height": 1080,
            "r_frame_rate": "0/0",
            "avg_frame_rate": "0/0",
            "time_base": "1/90000",
            "start_pts": 0,
            "start_time": "0.000000",
            "duration_ts": 708293700,
            "duration": "7869.930000",
            "bit_rate": "10982",
            "nb_frames": "1505",
            "disposition": {
                "default": 1,
                "dub": 0,
                "original": 0,
                "comment": 0,
                "lyrics": 0,
                "karaoke": 0,
                "forced": 0,
                "hearing_impaired": 0,
                "visual_impaired": 0,
                "clean_effects": 0,
                "attached_pic": 0
            },
            "tags": {
                "creation_time": "2013-07-22 05:59:39",
                "language": "spa",
                "handler_name": "Spanish"
            }
        }
    ],
    "format": {
        "filename": "C:/test/mov.mp4",
        "nb_streams": 10,
        "nb_programs": 0,
        "format_name": "mov,mp4,m4a,3gp,3g2,mj2",
        "format_long_name": "QuickTime / MOV",
        "start_time": "0.000000",
        "duration": "7869.930000",
        "size": "2338391157",
        "bit_rate": "2377038",
        "probe_score": 100,
        "tags": {
            "major_brand": "mp42",
            "minor_version": "0",
            "compatible_brands": "isommp42",
            "creation_time": "2013-07-22 05:59:10"
        }
    }
}
